<svg xmlns="http://www.w3.org/2000/svg" width="36" height="36"><path d="M0 0h36v36H0z" fill="rgba(255,255,255,0)"/><path d="M18 7.542c-2.841 0-3.2.013-4.311.063a7.712 7.712 0 00-2.539.486 5.122 5.122 0 00-1.853 1.206 5.1 5.1 0 00-1.206 1.853 7.689 7.689 0 00-.486 2.539c-.053 1.115-.063 1.47-.063 4.311s.013 3.2.063 4.311a7.717 7.717 0 00.486 2.539 5.129 5.129 0 001.206 1.853 5.114 5.114 0 001.853 1.206 7.721 7.721 0 002.539.486c1.116.052 1.47.063 4.311.063s3.2-.013 4.311-.063a7.739 7.739 0 002.539-.486 5.345 5.345 0 003.059-3.059 7.717 7.717 0 00.486-2.539c.052-1.116.063-1.47.063-4.311s-.013-3.2-.063-4.311a7.734 7.734 0 00-.486-2.539 5.133 5.133 0 00-1.206-1.853 5.1 5.1 0 00-1.852-1.206 7.694 7.694 0 00-2.539-.486c-1.116-.053-1.47-.063-4.312-.063zm0 1.883c2.792 0 3.124.014 4.227.062a5.762 5.762 0 011.941.362 3.442 3.442 0 011.985 1.984 5.774 5.774 0 01.36 1.941c.05 1.1.061 1.435.061 4.227s-.013 3.124-.064 4.227a5.886 5.886 0 01-.367 1.941 3.321 3.321 0 01-.784 1.2 3.263 3.263 0 01-1.2.781 5.817 5.817 0 01-1.948.36c-1.11.05-1.437.061-4.235.061s-3.125-.013-4.235-.064a5.93 5.93 0 01-1.95-.365 3.239 3.239 0 01-1.2-.784 3.176 3.176 0 01-.784-1.2 5.935 5.935 0 01-.365-1.949c-.039-1.1-.053-1.437-.053-4.222s.01-3.125.053-4.236a5.928 5.928 0 01.366-1.947 3.1 3.1 0 01.784-1.2 3.093 3.093 0 011.2-.783 5.788 5.788 0 011.936-.367c1.111-.039 1.438-.052 4.235-.052l.039.026zm0 3.205A5.37 5.37 0 1023.37 18 5.37 5.37 0 0018 12.63zm0 8.856A3.486 3.486 0 1121.486 18 3.485 3.485 0 0118 21.486zm6.842-9.068a1.255 1.255 0 11-1.255-1.254 1.256 1.256 0 011.255 1.254z" fill="#fff"/></svg>