<svg xmlns="http://www.w3.org/2000/svg" width="61" height="36"><g fill="#fff"><path d="M7.684 21v-6l4.977 3zm11.094-7.814a2.454 2.454 0 00-1.694-1.768C15.59 11 9.599 11 9.599 11s-5.991 0-7.485.418a2.454 2.454 0 00-1.693 1.768A27.144 27.144 0 00.021 18a27.144 27.144 0 00.4 4.814 2.454 2.454 0 001.694 1.772c1.494.418 7.485.418 7.485.418s5.991 0 7.485-.418a2.454 2.454 0 001.694-1.768 27.141 27.141 0 00.4-4.814 27.141 27.141 0 00-.4-4.814m11.173 9.173a4.452 4.452 0 00.158-1.4v-2.732a4.4 4.4 0 00-.158-1.38.567.567 0 00-.555-.436.56.56 0 00-.541.436 4.4 4.4 0 00-.158 1.38v2.732a4.633 4.633 0 00.151 1.4.554.554 0 00.548.429.566.566 0 00.555-.429zm-2.124 1.373a2.181 2.181 0 01-.808-1.244 8.485 8.485 0 01-.24-2.245v-1.273a7.685 7.685 0 01.274-2.274 2.278 2.278 0 01.856-1.251 2.682 2.682 0 011.528-.393 2.522 2.522 0 011.493.4 2.3 2.3 0 01.822 1.251 8 8 0 01.26 2.267v1.273a8.132 8.132 0 01-.253 2.253 2.213 2.213 0 01-.822 1.244 2.669 2.669 0 01-1.541.393 2.686 2.686 0 01-1.569-.4m29.338-7.159a1.244 1.244 0 00-.192.608 12.391 12.391 0 00-.048 1.28v.629h1.383v-.629a11.125 11.125 0 00-.055-1.28 1.262 1.262 0 00-.2-.615.538.538 0 00-.445-.179.528.528 0 00-.443.186zm-.239 3.69v.443a12.194 12.194 0 00.048 1.266 1.236 1.236 0 00.2.615.554.554 0 00.466.193.583.583 0 00.582-.343 3.109 3.109 0 00.171-1.144l1.63.1a2.8 2.8 0 01.014.315 2.383 2.383 0 01-.637 1.817 2.525 2.525 0 01-1.8.6 2.111 2.111 0 01-1.959-.915 5.554 5.554 0 01-.562-2.832v-1.528a5.494 5.494 0 01.582-2.882 2.184 2.184 0 011.993-.908 2.548 2.548 0 011.493.372 2 2 0 01.733 1.159 8.724 8.724 0 01.212 2.174v1.5h-3.165m-33.704-.167l-2.153-8.109h1.877l.753 3.676q.288 1.359.425 2.317h.055q.1-.686.425-2.3l.781-3.69h1.877l-2.178 8.11v3.891h-1.863v-3.891m14.895-4.881v8.767h-1.48l-.165-1.073h-.041a1.931 1.931 0 01-1.808 1.216 1.4 1.4 0 01-1.233-.572 3.178 3.178 0 01-.4-1.788v-6.55h1.891v6.436a2.042 2.042 0 00.123.837.424.424 0 00.411.25.813.813 0 00.473-.157.962.962 0 00.336-.4v-6.965h1.891m9.7-.001v8.767h-1.48l-.164-1.073h-.041a1.931 1.931 0 01-1.809 1.216 1.4 1.4 0 01-1.233-.572 3.177 3.177 0 01-.4-1.788v-6.55h1.891v6.436a2.042 2.042 0 00.123.837.424.424 0 00.411.25.813.813 0 00.473-.157.963.963 0 00.336-.4v-6.965h1.891"/><path d="M43.256 13.581h-1.879v10.412h-1.849V13.581h-1.877v-1.588h5.6v1.588m9.089 6.623a11.576 11.576 0 01-.076 1.5 1.664 1.664 0 01-.258.774.576.576 0 01-.479.229.847.847 0 01-.432-.114.845.845 0 01-.322-.343v-4.977a1.259 1.259 0 01.329-.586.713.713 0 01.507-.229.505.505 0 01.445.236 1.873 1.873 0 01.219.794 15.413 15.413 0 01.062 1.587zm1.733-3.576a2.3 2.3 0 00-.555-1.2 1.453 1.453 0 00-1.055-.372 1.7 1.7 0 00-.973.307 2.061 2.061 0 00-.7.808h-.014v-4.62h-1.82v12.443h1.562l.192-.829h.041a1.644 1.644 0 00.658.7 1.886 1.886 0 00.973.257 1.485 1.485 0 001.411-.922 6.9 6.9 0 00.452-2.882v-1.387a12.011 12.011 0 00-.171-2.3"/></g><path fill="none" d="M0 0h61v36H0z"/></svg>