<svg xmlns="http://www.w3.org/2000/svg" width="88" height="27.895"><g data-name="グループ 3"><g data-name="グループ 2"><g data-name="グループ 1" fill="#fff" fill-rule="evenodd"><path data-name="1881" d="M67.266 27.817v-4.985h-.539l-1.39.439v.571h.114l1.067-.351v4.322zm-4.638-3.778a1.145 1.145 0 01-.689.96c-.734-.241-1.061-.543-1.061-.98s.328-.71.876-.71.874.266.874.73zm.165 2.511c0 .49-.4.795-1.047.795s-1.033-.307-1.033-.821a1.184 1.184 0 01.85-1.045c.865.273 1.23.595 1.23 1.071zm.776-.026a1.428 1.428 0 00-1.07-1.317 1.335 1.335 0 00.9-1.22c0-.746-.643-1.228-1.637-1.228s-1.65.494-1.65 1.26a1.328 1.328 0 00.886 1.229 1.486 1.486 0 00-1.058 1.334c0 .8.7 1.313 1.775 1.313 1.125 0 1.854-.538 1.854-1.371zm-6.412-2.485a1.145 1.145 0 01-.689.96c-.734-.241-1.061-.543-1.061-.98s.328-.71.876-.71.874.266.874.73zm.165 2.511c0 .49-.4.795-1.047.795s-1.033-.307-1.033-.821a1.184 1.184 0 01.85-1.045c.861.273 1.23.595 1.23 1.071zm.775-.026a1.428 1.428 0 00-1.069-1.318 1.335 1.335 0 00.9-1.22c0-.746-.643-1.228-1.637-1.228s-1.651.494-1.651 1.26a1.327 1.327 0 00.886 1.229 1.485 1.485 0 00-1.058 1.334c0 .8.7 1.313 1.775 1.313 1.125.001 1.854-.537 1.854-1.37zm-6.2 1.294v-4.986h-.539l-1.39.439v.571h.115l1.066-.351v4.322zm-7.283 0v-.576h-2.34v-1.74h1.9v-.576h-1.9v-1.513h2.23v-.581h-2.98v4.98zm-5.366-.161v-.552h-.117a3.041 3.041 0 01-1.013.191c-1.069 0-1.706-.74-1.706-1.978s.637-1.967 1.706-1.967a3.166 3.166 0 011.029.2h.1v-.044l-.03-.549a3.583 3.583 0 00-1.134-.172 2.3 2.3 0 00-2.468 2.542 2.3 2.3 0 002.468 2.543 2.608 2.608 0 001.162-.215zm-5.72.161v-4.986h-.687v3.774l-2.678-3.774h-.71v4.98h.686v-3.816l2.73 3.822zm-7.5 0h.755v-4.986h-.755zm-4.387.052a3.388 3.388 0 01-1.274-.232l-.027-.567v-.044h.1a3.6 3.6 0 001.256.286c.641 0 1.04-.3 1.04-.782 0-.537-.513-.767-1.057-1.01-.621-.278-1.326-.594-1.326-1.437 0-.813.635-1.3 1.7-1.3a4.232 4.232 0 011.2.185l.03.543v.044h-.1a3.689 3.689 0 00-1.119-.215c-.587 0-.937.249-.937.665 0 .479.464.685 1 .924.648.288 1.382.615 1.382 1.528-.004.884-.703 1.411-1.875 1.411z"/><path data-name="パス 1" d="M61.517 16.657h8.456v-2.435h-2.386l-5.947-7 5.6-4.252h2.417V.558h-8.14v2.413h1.713l-8.181 6.2v-6.2h2.792V.561h-8.472v2.416h2.825V14.24h-2.825v2.418h8.472V14.24h-2.792v-2.017l4.291-3.259 4.468 5.258h-2.291zm-46.694-4.564c0 1.362-1.284 2.645-5.263 2.656-1.855.01-6.28-.678-6.311-2.587V11.1H.4v5.553h2.85v-.963a15.341 15.341 0 006.483 1.448c3.178.013 5.575-.626 6.648-1.889a4.853 4.853 0 001.293-3.14 4.542 4.542 0 00-3.749-4.44 21.526 21.526 0 00-2.64-.279A63.507 63.507 0 014.8 7c-1.174-.142-2-.681-1.929-1.929a2.063 2.063 0 01.585-1.389c.956-.91 2.751-1.233 4.844-1.159a12.418 12.418 0 014.791 1.154 1.835 1.835 0 011.328 1.763v.76h2.852V.566h-2.852v1.167A13.854 13.854 0 007.776.175C4.424.155 2.575.83 1.421 1.891A4.575 4.575 0 000 5.1a3.916 3.916 0 002.634 3.88c1.724.622 5.335.719 7.06.795 1.629.074 3.113.009 4.149.578a2 2 0 01.98 1.74zM18.973.561v2.416h2.849V14.24h-2.849v2.418h18.578v-5.473H34.7v3.055H24.672V9.89h4.488v1.689h2.849V5.622H29.16v1.852h-4.488v-4.5H34.7V6.2h2.852V.568zm28.768 2.416V.561h-8.313v2.416h2.746V14.24h-2.746v2.418h8.313V14.24h-2.717V2.977zm31 14.1c5.572 0 9.261-3.9 9.261-8.553C88 4.112 84.668 0 78.605 0c-5.357 0-9.093 3.789-9.093 8.507s3.763 8.571 9.227 8.571zm-6.412-8.57a6.156 6.156 0 016.412-6.1 6.238 6.238 0 016.418 6.149 6.422 6.422 0 01-12.83-.05z"/></g></g></g></svg>